<svg width="458" height="250" viewBox="0 0 458 250" fill="none" xmlns="http://www.w3.org/2000/svg">
<mask id="mask0" mask-type="alpha" maskUnits="userSpaceOnUse" x="208" y="0" width="250" height="250">
<rect x="208" width="250" height="250" rx="125" fill="#C4C4C4"/>
</mask>
<g mask="url(#mask0)">
<path d="M391.588 11.4807C374.752 3.47812 355.916 -1 336.034 -1C301.35 -1 269.849 12.628 246.594 34.8214C221.87 58.4166 435.349 32.2809 391.588 11.4807Z" fill="#7CCDE3"/>
<path d="M437.402 47.7267C437.55 47.9117 426.834 62.2337 394.628 66.2997C329.623 74.5065 218.019 75.3742 218.188 75.0046C225.092 59.8343 234.835 46.2294 246.739 34.8689C260.765 39.2481 276.032 40.3394 290.473 37.6782C314.317 33.3161 335.53 19.5387 359.116 13.9241C369.584 11.4091 380.99 10.6745 391.732 11.5278C409.581 20.0115 425.183 32.4566 437.402 47.7267Z" fill="#98D5E6"/>
<path d="M463.962 108.343C464.044 108.865 317.375 122.652 245.914 118.633C222.631 117.324 208.891 103.247 209.048 102.479C211.012 92.9007 214.033 83.7081 217.983 75.0279C238.628 63.7276 262.917 57.2061 286.47 57.4635C316.005 57.7658 344.98 67.613 374.516 66.8787C396.45 66.3209 418.559 59.3201 437.197 47.75C450.932 64.9157 460.392 85.6515 463.962 108.343Z" fill="#B4DDE8"/>
<path d="M465.132 127.91C465.132 128.628 465.114 130.06 465.114 130.06C465.114 130.06 424.377 140.335 371.912 139.722C298.427 138.863 205.998 127.01 206 126.793C206.073 118.196 206.982 109.799 208.652 101.679C226.258 112.542 247.609 117.862 268.16 115.623C284.501 113.852 300.024 107.806 315.158 101.371C330.292 94.9353 345.34 88.025 361.337 84.3107C384.836 78.8689 409.973 80.7692 432.438 89.623C443.366 93.9327 454.209 100.129 463.549 107.6C464.591 114.217 465.132 121 465.132 127.91Z" fill="#F25192"/>
<path d="M318.194 170.017C279.321 177.196 212.609 168.916 212.441 168.404C208.261 155.674 206 142.075 206 127.947C206 127.574 206.002 127.201 206.005 126.829C211.906 122.15 218.799 117.977 225.528 114.735C242.172 106.659 261.057 103.29 279.468 105.104C297.664 106.918 315.04 113.655 331.856 120.911C346.023 127.024 360.099 133.628 374.804 138.19C376.245 138.637 360.985 162.115 318.194 170.017Z" fill="#D34CA3"/>
<path d="M460.618 162.852C457.904 167.436 432.088 182.879 397.093 185.524C350.758 189.026 296.02 175.02 314.178 167.892C342.765 156.663 367.557 136.494 397.093 128.072C419.157 121.751 443.615 122.75 465.275 130.388C465.092 141.614 463.482 152.494 460.618 162.852Z" fill="#9A50A5"/>
<path d="M448.591 192.573C426.218 231.416 263.953 241.157 240.248 215.028C228.182 201.728 218.841 185.908 213.109 168.453C233.036 157.064 256.363 152.227 278.784 155.293C307.802 159.266 333.802 175.462 362.432 181.768C385.543 186.864 410.034 185.266 432.282 177.233C442.34 173.574 452.312 168.67 461.131 162.607C458.201 173.202 453.959 183.253 448.591 192.573Z" fill="#96D180"/>
<path d="M448.058 192.029C425.732 231.051 383.695 257.346 335.517 257.346C297.452 257.346 263.221 240.932 239.516 214.795C243.449 216.299 247.849 217.599 251.882 218.735C274.432 224.954 298.707 224.782 321.128 218.174C335.487 213.941 348.982 207.203 363.082 202.107C389.986 192.405 419.599 188.989 448.058 192.029Z" fill="#86AB79"/>
<circle cx="315.5" cy="52.5" r="12.5" fill="#1186A6"/>
<circle cx="407.5" cy="125.5" r="12.5" fill="#DD86A9"/>
<circle cx="279.5" cy="189.5" r="12.5" fill="#498333"/>
<path d="M325 61L397 117" stroke="url(#paint0_linear)" stroke-dasharray="5 5"/>
<path d="M291 184L395 132" stroke="url(#paint1_linear)" stroke-dasharray="5 5"/>
</g>
<path d="M59.286 146.82C56.334 146.82 53.6553 146.082 51.25 144.606C48.8447 143.13 46.904 141.162 45.428 138.702C44.0067 136.187 43.296 133.399 43.296 130.338V104.344C43.296 101.392 44.0067 98.686 45.428 96.226C46.904 93.7113 48.8447 91.716 51.25 90.24C53.71 88.764 56.3887 88.026 59.286 88.026C62.2927 88.026 64.9987 88.764 67.404 90.24C69.864 91.6613 71.8047 93.602 73.226 96.062C74.6473 98.522 75.358 101.283 75.358 104.344V108.116C75.358 108.335 75.2213 108.444 74.948 108.444H65.764C65.5453 108.444 65.436 108.335 65.436 108.116V105C65.436 102.923 64.8347 101.201 63.632 99.834C62.484 98.4673 61.0353 97.784 59.286 97.784C57.7007 97.784 56.2793 98.44 55.022 99.752C53.8193 101.064 53.218 102.595 53.218 104.344V130.338C53.218 132.142 53.8193 133.7 55.022 135.012C56.2247 136.269 57.646 136.898 59.286 136.898C61.0353 136.898 62.484 136.269 63.632 135.012C64.8347 133.755 65.436 132.197 65.436 130.338V126.32H59.696C59.4227 126.32 59.286 126.183 59.286 125.91V116.726C59.286 116.453 59.4227 116.316 59.696 116.316H75.03C75.2487 116.316 75.358 116.453 75.358 116.726V130.338C75.358 133.399 74.62 136.187 73.144 138.702C71.7227 141.162 69.8093 143.13 67.404 144.606C64.9987 146.082 62.2927 146.82 59.286 146.82ZM81.606 146C81.3327 146 81.196 145.863 81.196 145.59L81.278 89.256C81.278 89.0373 81.3873 88.928 81.606 88.928H90.79C91.0087 88.928 91.118 89.0373 91.118 89.256L91.2 145.59C91.2 145.863 91.0907 146 90.872 146H81.606ZM112.353 146.82C109.401 146.82 106.695 146.082 104.235 144.606C101.829 143.075 99.8888 141.08 98.4128 138.62C96.9915 136.105 96.2808 133.345 96.2808 130.338V126.566C96.2808 126.293 96.4175 126.156 96.6908 126.156H105.875C106.093 126.156 106.203 126.293 106.203 126.566V130.338C106.203 132.142 106.804 133.7 108.007 135.012C109.209 136.269 110.658 136.898 112.353 136.898C114.047 136.898 115.496 136.242 116.699 134.93C117.901 133.618 118.503 132.087 118.503 130.338C118.503 128.315 117.191 126.566 114.567 125.09C113.692 124.598 112.325 123.833 110.467 122.794C108.608 121.755 106.859 120.771 105.219 119.842C102.212 118.093 99.9708 115.906 98.4948 113.282C97.0735 110.603 96.3628 107.597 96.3628 104.262C96.3628 101.201 97.1008 98.4673 98.5768 96.062C100.053 93.602 101.993 91.6613 104.399 90.24C106.859 88.8187 109.51 88.108 112.353 88.108C115.25 88.108 117.901 88.846 120.307 90.322C122.767 91.7433 124.707 93.684 126.129 96.144C127.605 98.5493 128.343 101.255 128.343 104.262V110.986C128.343 111.205 128.233 111.314 128.015 111.314H118.831C118.612 111.314 118.503 111.205 118.503 110.986L118.421 104.262C118.421 102.349 117.819 100.791 116.617 99.588C115.414 98.3853 113.993 97.784 112.353 97.784C110.658 97.784 109.209 98.44 108.007 99.752C106.804 101.009 106.203 102.513 106.203 104.262C106.203 106.066 106.585 107.569 107.351 108.772C108.116 109.975 109.51 111.123 111.533 112.216C111.806 112.38 112.325 112.681 113.091 113.118C113.911 113.501 114.785 113.965 115.715 114.512C116.644 115.004 117.464 115.441 118.175 115.824C118.94 116.207 119.405 116.453 119.569 116.562C122.302 118.093 124.461 119.979 126.047 122.22C127.632 124.407 128.425 127.113 128.425 130.338C128.425 133.454 127.687 136.269 126.211 138.784C124.789 141.244 122.849 143.212 120.389 144.688C117.983 146.109 115.305 146.82 112.353 146.82ZM147.187 146.82C144.235 146.82 141.529 146.082 139.069 144.606C136.663 143.075 134.723 141.08 133.247 138.62C131.825 136.105 131.115 133.345 131.115 130.338V126.566C131.115 126.293 131.251 126.156 131.525 126.156H140.709C140.927 126.156 141.037 126.293 141.037 126.566V130.338C141.037 132.142 141.638 133.7 142.841 135.012C144.043 136.269 145.492 136.898 147.187 136.898C148.881 136.898 150.33 136.242 151.533 134.93C152.735 133.618 153.337 132.087 153.337 130.338C153.337 128.315 152.025 126.566 149.401 125.09C148.526 124.598 147.159 123.833 145.301 122.794C143.442 121.755 141.693 120.771 140.053 119.842C137.046 118.093 134.805 115.906 133.329 113.282C131.907 110.603 131.197 107.597 131.197 104.262C131.197 101.201 131.935 98.4673 133.411 96.062C134.887 93.602 136.827 91.6613 139.233 90.24C141.693 88.8187 144.344 88.108 147.187 88.108C150.084 88.108 152.735 88.846 155.141 90.322C157.601 91.7433 159.541 93.684 160.963 96.144C162.439 98.5493 163.177 101.255 163.177 104.262V110.986C163.177 111.205 163.067 111.314 162.849 111.314H153.665C153.446 111.314 153.337 111.205 153.337 110.986L153.255 104.262C153.255 102.349 152.653 100.791 151.451 99.588C150.248 98.3853 148.827 97.784 147.187 97.784C145.492 97.784 144.043 98.44 142.841 99.752C141.638 101.009 141.037 102.513 141.037 104.262C141.037 106.066 141.419 107.569 142.185 108.772C142.95 109.975 144.344 111.123 146.367 112.216C146.64 112.38 147.159 112.681 147.925 113.118C148.745 113.501 149.619 113.965 150.549 114.512C151.478 115.004 152.298 115.441 153.009 115.824C153.774 116.207 154.239 116.453 154.403 116.562C157.136 118.093 159.295 119.979 160.881 122.22C162.466 124.407 163.259 127.113 163.259 130.338C163.259 133.454 162.521 136.269 161.045 138.784C159.623 141.244 157.683 143.212 155.223 144.688C152.817 146.109 150.139 146.82 147.187 146.82ZM174.986 146C174.822 146 174.74 145.891 174.74 145.672L174.822 122.384L163.834 89.256C163.779 89.0373 163.861 88.928 164.08 88.928H173.182C173.455 88.928 173.619 89.0373 173.674 89.256L179.742 111.314L185.892 89.256C185.947 89.0373 186.083 88.928 186.302 88.928H195.486C195.705 88.928 195.787 89.0373 195.732 89.256L184.662 122.056L184.744 145.672C184.744 145.891 184.635 146 184.416 146H174.986Z" fill="#1186A6"/>
<path d="M5.88 186.28C4.872 186.28 3.948 186.028 3.108 185.524C2.28667 185.001 1.624 184.32 1.12 183.48C0.634667 182.621 0.392 181.679 0.392 180.652V179.364C0.392 179.271 0.438667 179.224 0.532 179.224H3.668C3.74267 179.224 3.78 179.271 3.78 179.364V180.652C3.78 181.268 3.98533 181.8 4.396 182.248C4.80667 182.677 5.30133 182.892 5.88 182.892C6.45867 182.892 6.95333 182.668 7.364 182.22C7.77467 181.772 7.98 181.249 7.98 180.652C7.98 179.961 7.532 179.364 6.636 178.86C6.33733 178.692 5.87067 178.431 5.236 178.076C4.60133 177.721 4.004 177.385 3.444 177.068C2.41733 176.471 1.652 175.724 1.148 174.828C0.662667 173.913 0.42 172.887 0.42 171.748C0.42 170.703 0.672 169.769 1.176 168.948C1.68 168.108 2.34267 167.445 3.164 166.96C4.004 166.475 4.90933 166.232 5.88 166.232C6.86933 166.232 7.77467 166.484 8.596 166.988C9.436 167.473 10.0987 168.136 10.584 168.976C11.088 169.797 11.34 170.721 11.34 171.748V174.044C11.34 174.119 11.3027 174.156 11.228 174.156H8.092C8.01733 174.156 7.98 174.119 7.98 174.044L7.952 171.748C7.952 171.095 7.74667 170.563 7.336 170.152C6.92533 169.741 6.44 169.536 5.88 169.536C5.30133 169.536 4.80667 169.76 4.396 170.208C3.98533 170.637 3.78 171.151 3.78 171.748C3.78 172.364 3.91067 172.877 4.172 173.288C4.43333 173.699 4.90933 174.091 5.6 174.464C5.69333 174.52 5.87067 174.623 6.132 174.772C6.412 174.903 6.71067 175.061 7.028 175.248C7.34533 175.416 7.62533 175.565 7.868 175.696C8.12933 175.827 8.288 175.911 8.344 175.948C9.27733 176.471 10.0147 177.115 10.556 177.88C11.0973 178.627 11.368 179.551 11.368 180.652C11.368 181.716 11.116 182.677 10.612 183.536C10.1267 184.376 9.464 185.048 8.624 185.552C7.80267 186.037 6.888 186.28 5.88 186.28ZM18.4953 186.28C17.4873 186.28 16.5633 186.028 15.7233 185.524C14.902 185.001 14.2393 184.32 13.7353 183.48C13.2313 182.621 12.9793 181.679 12.9793 180.652L13.0073 171.776C13.0073 170.749 13.25 169.816 13.7353 168.976C14.2393 168.136 14.9113 167.464 15.7513 166.96C16.5913 166.456 17.506 166.204 18.4953 166.204C19.5033 166.204 20.418 166.456 21.2393 166.96C22.0606 167.464 22.714 168.136 23.1993 168.976C23.7033 169.816 23.9553 170.749 23.9553 171.776L23.9833 180.652C23.9833 181.679 23.7313 182.621 23.2273 183.48C22.742 184.32 22.0793 185.001 21.2393 185.524C20.418 186.028 19.5033 186.28 18.4953 186.28ZM18.4953 182.892C19.0553 182.892 19.5406 182.668 19.9513 182.22C20.3806 181.753 20.5953 181.231 20.5953 180.652L20.5673 171.776C20.5673 171.16 20.3713 170.637 19.9793 170.208C19.5873 169.779 19.0926 169.564 18.4953 169.564C17.9166 169.564 17.422 169.779 17.0113 170.208C16.6006 170.619 16.3953 171.141 16.3953 171.776V180.652C16.3953 181.268 16.6006 181.8 17.0113 182.248C17.422 182.677 17.9166 182.892 18.4953 182.892ZM31.2642 186.28C30.2375 186.28 29.3042 186.028 28.4642 185.524C27.6429 185.001 26.9895 184.311 26.5042 183.452C26.0189 182.593 25.7762 181.632 25.7762 180.568L25.8042 171.832C25.8042 170.805 26.0375 169.872 26.5042 169.032C26.9895 168.173 27.6429 167.492 28.4642 166.988C29.3042 166.465 30.2375 166.204 31.2642 166.204C32.2909 166.204 33.2149 166.456 34.0362 166.96C34.8575 167.464 35.5109 168.145 35.9962 169.004C36.4815 169.844 36.7242 170.787 36.7242 171.832V173.12C36.7242 173.195 36.6869 173.232 36.6122 173.232H33.4762C33.4015 173.232 33.3642 173.195 33.3642 173.12V171.832C33.3642 171.216 33.1589 170.684 32.7482 170.236C32.3562 169.788 31.8615 169.564 31.2642 169.564C30.5922 169.564 30.0789 169.797 29.7242 170.264C29.3695 170.712 29.1922 171.235 29.1922 171.832V180.568C29.1922 181.259 29.3882 181.819 29.7802 182.248C30.1909 182.677 30.6855 182.892 31.2642 182.892C31.8615 182.892 32.3562 182.659 32.7482 182.192C33.1589 181.707 33.3642 181.165 33.3642 180.568V179.28C33.3642 179.205 33.4015 179.168 33.4762 179.168H36.6402C36.7149 179.168 36.7522 179.205 36.7522 179.28V180.568C36.7522 181.632 36.5002 182.593 35.9962 183.452C35.5109 184.311 34.8575 185.001 34.0362 185.524C33.2149 186.028 32.2909 186.28 31.2642 186.28ZM38.9397 186C38.8464 186 38.7997 185.953 38.7997 185.86L38.8277 166.624C38.8277 166.549 38.865 166.512 38.9397 166.512H42.0757C42.1504 166.512 42.1877 166.549 42.1877 166.624L42.2157 185.86C42.2157 185.953 42.1784 186 42.1037 186H38.9397ZM43.7266 185.86L47.1986 166.624C47.2173 166.549 47.2639 166.512 47.3386 166.512H51.3986C51.4733 166.512 51.5199 166.549 51.5386 166.624L54.8706 185.86C54.8893 185.953 54.8519 186 54.7586 186H51.6506C51.5759 186 51.5293 185.953 51.5106 185.86L51.2026 183.816H47.3946L47.0866 185.86C47.0679 185.953 47.0213 186 46.9466 186H43.8386C43.7639 186 43.7266 185.953 43.7266 185.86ZM47.9546 180.82H50.6426L49.4946 172.952L49.3266 171.916L49.2146 172.952L47.9546 180.82ZM56.7398 186C56.6651 186 56.6278 185.953 56.6278 185.86L56.6558 166.652C56.6558 166.559 56.7025 166.512 56.7958 166.512H59.9038C59.9971 166.512 60.0438 166.559 60.0438 166.652L60.0158 182.556H65.7838C65.8771 182.556 65.9238 182.603 65.9238 182.696V185.86C65.9238 185.953 65.8771 186 65.7838 186H56.7398ZM75.9159 186.28C74.9079 186.28 73.9932 186.028 73.1719 185.524C72.3505 185.02 71.6879 184.348 71.1839 183.508C70.6985 182.649 70.4559 181.697 70.4559 180.652V171.776C70.4559 170.768 70.6985 169.844 71.1839 169.004C71.6879 168.145 72.3505 167.464 73.1719 166.96C74.0119 166.456 74.9265 166.204 75.9159 166.204C76.9425 166.204 77.8665 166.456 78.6879 166.96C79.5279 167.445 80.1905 168.108 80.6759 168.948C81.1612 169.788 81.4039 170.731 81.4039 171.776V173.064C81.4039 173.139 81.3572 173.176 81.2639 173.176H78.1279C78.0532 173.176 78.0159 173.139 78.0159 173.064V172C78.0159 171.291 77.8105 170.703 77.3999 170.236C77.0079 169.769 76.5132 169.536 75.9159 169.536C75.3745 169.536 74.8892 169.76 74.4599 170.208C74.0492 170.656 73.8439 171.179 73.8439 171.776V180.652C73.8439 181.268 74.0492 181.8 74.4599 182.248C74.8705 182.677 75.3559 182.892 75.9159 182.892C76.5132 182.892 77.0079 182.677 77.3999 182.248C77.8105 181.819 78.0159 181.287 78.0159 180.652V179.28H76.0559C75.9625 179.28 75.9159 179.233 75.9159 179.14V176.004C75.9159 175.911 75.9625 175.864 76.0559 175.864H81.2919C81.3665 175.864 81.4039 175.911 81.4039 176.004V180.652C81.4039 181.697 81.1519 182.649 80.6479 183.508C80.1625 184.348 79.5092 185.02 78.6879 185.524C77.8665 186.028 76.9425 186.28 75.9159 186.28ZM83.5373 186C83.444 186 83.3973 185.953 83.3973 185.86L83.4253 166.624C83.4253 166.549 83.4627 166.512 83.5373 166.512H86.6733C86.748 166.512 86.7853 166.549 86.7853 166.624L86.8133 185.86C86.8133 185.953 86.776 186 86.7013 186H83.5373ZM94.0363 186.28C93.0283 186.28 92.1043 186.028 91.2643 185.524C90.4429 185.001 89.7803 184.32 89.2763 183.48C88.7909 182.621 88.5483 181.679 88.5483 180.652V179.364C88.5483 179.271 88.5949 179.224 88.6883 179.224H91.8243C91.8989 179.224 91.9363 179.271 91.9363 179.364V180.652C91.9363 181.268 92.1416 181.8 92.5523 182.248C92.9629 182.677 93.4576 182.892 94.0363 182.892C94.6149 182.892 95.1096 182.668 95.5203 182.22C95.9309 181.772 96.1363 181.249 96.1363 180.652C96.1363 179.961 95.6883 179.364 94.7923 178.86C94.4936 178.692 94.0269 178.431 93.3923 178.076C92.7576 177.721 92.1603 177.385 91.6003 177.068C90.5736 176.471 89.8083 175.724 89.3043 174.828C88.8189 173.913 88.5763 172.887 88.5763 171.748C88.5763 170.703 88.8283 169.769 89.3323 168.948C89.8363 168.108 90.4989 167.445 91.3203 166.96C92.1603 166.475 93.0656 166.232 94.0363 166.232C95.0256 166.232 95.9309 166.484 96.7523 166.988C97.5923 167.473 98.2549 168.136 98.7403 168.976C99.2443 169.797 99.4963 170.721 99.4963 171.748V174.044C99.4963 174.119 99.4589 174.156 99.3843 174.156H96.2483C96.1736 174.156 96.1363 174.119 96.1363 174.044L96.1083 171.748C96.1083 171.095 95.9029 170.563 95.4923 170.152C95.0816 169.741 94.5963 169.536 94.0363 169.536C93.4576 169.536 92.9629 169.76 92.5523 170.208C92.1416 170.637 91.9363 171.151 91.9363 171.748C91.9363 172.364 92.0669 172.877 92.3283 173.288C92.5896 173.699 93.0656 174.091 93.7563 174.464C93.8496 174.52 94.0269 174.623 94.2883 174.772C94.5683 174.903 94.8669 175.061 95.1843 175.248C95.5016 175.416 95.7816 175.565 96.0243 175.696C96.2856 175.827 96.4443 175.911 96.5003 175.948C97.4336 176.471 98.1709 177.115 98.7123 177.88C99.2536 178.627 99.5243 179.551 99.5243 180.652C99.5243 181.716 99.2723 182.677 98.7683 183.536C98.2829 184.376 97.6203 185.048 96.7803 185.552C95.9589 186.037 95.0443 186.28 94.0363 186.28ZM105.88 186C105.73 186 105.656 185.935 105.656 185.804L105.628 166.736C105.628 166.587 105.702 166.512 105.852 166.512H108.372L113.104 177.544L112.964 166.736C112.964 166.587 113.048 166.512 113.216 166.512H115.988C116.1 166.512 116.156 166.587 116.156 166.736L116.184 185.832C116.184 185.944 116.137 186 116.044 186H113.58L108.736 175.696L108.932 185.776C108.932 185.925 108.848 186 108.68 186H105.88ZM118.728 186C118.653 186 118.616 185.953 118.616 185.86L118.644 166.624C118.644 166.549 118.681 166.512 118.756 166.512H127.744C127.819 166.512 127.856 166.559 127.856 166.652V169.788C127.856 169.863 127.819 169.9 127.744 169.9H122.004V174.268H127.744C127.819 174.268 127.856 174.305 127.856 174.38L127.884 177.544C127.884 177.619 127.847 177.656 127.772 177.656H122.004V182.556H127.772C127.847 182.556 127.884 182.603 127.884 182.696V185.888C127.884 185.963 127.847 186 127.772 186H118.728ZM133.174 186C133.099 186 133.062 185.953 133.062 185.86V169.9H129.422C129.329 169.9 129.282 169.853 129.282 169.76L129.31 166.624C129.31 166.549 129.347 166.512 129.422 166.512H140.062C140.155 166.512 140.202 166.549 140.202 166.624V169.76C140.202 169.853 140.165 169.9 140.09 169.9H136.422L136.45 185.86C136.45 185.953 136.413 186 136.338 186H133.174ZM144.161 186C144.086 186 144.04 185.953 144.021 185.86L140.717 166.624C140.698 166.549 140.726 166.512 140.801 166.512H143.937C144.012 166.512 144.058 166.549 144.077 166.624L145.869 179.28L147.717 166.624C147.736 166.549 147.792 166.512 147.885 166.512H150.405C150.48 166.512 150.526 166.549 150.545 166.624L152.365 179.28L154.185 166.624C154.204 166.549 154.25 166.512 154.325 166.512H157.433C157.526 166.512 157.564 166.549 157.545 166.624L154.213 185.86C154.194 185.897 154.166 185.935 154.129 185.972C154.092 185.991 154.073 186 154.073 186H150.685C150.629 186 150.582 185.953 150.545 185.86L149.117 175.808L147.689 185.86C147.67 185.953 147.624 186 147.549 186H144.161ZM163.827 186.28C162.819 186.28 161.895 186.028 161.055 185.524C160.234 185.001 159.571 184.32 159.067 183.48C158.563 182.621 158.311 181.679 158.311 180.652L158.339 171.776C158.339 170.749 158.582 169.816 159.067 168.976C159.571 168.136 160.243 167.464 161.083 166.96C161.923 166.456 162.838 166.204 163.827 166.204C164.835 166.204 165.75 166.456 166.571 166.96C167.393 167.464 168.046 168.136 168.531 168.976C169.035 169.816 169.287 170.749 169.287 171.776L169.315 180.652C169.315 181.679 169.063 182.621 168.559 183.48C168.074 184.32 167.411 185.001 166.571 185.524C165.75 186.028 164.835 186.28 163.827 186.28ZM163.827 182.892C164.387 182.892 164.873 182.668 165.283 182.22C165.713 181.753 165.927 181.231 165.927 180.652L165.899 171.776C165.899 171.16 165.703 170.637 165.311 170.208C164.919 169.779 164.425 169.564 163.827 169.564C163.249 169.564 162.754 169.779 162.343 170.208C161.933 170.619 161.727 171.141 161.727 171.776V180.652C161.727 181.268 161.933 181.8 162.343 182.248C162.754 182.677 163.249 182.892 163.827 182.892ZM171.556 186C171.482 186 171.444 185.953 171.444 185.86L171.5 166.624C171.5 166.549 171.538 166.512 171.612 166.512H177.268C178.276 166.512 179.2 166.764 180.04 167.268C180.899 167.753 181.58 168.416 182.084 169.256C182.588 170.077 182.84 171.011 182.84 172.056C182.84 172.747 182.738 173.372 182.532 173.932C182.327 174.473 182.084 174.94 181.804 175.332C181.524 175.705 181.272 175.985 181.048 176.172C182.056 177.292 182.56 178.608 182.56 180.12L182.588 185.86C182.588 185.953 182.542 186 182.448 186H179.284C179.21 186 179.172 185.972 179.172 185.916V180.12C179.172 179.448 178.93 178.869 178.444 178.384C177.978 177.88 177.399 177.628 176.708 177.628H174.86L174.832 185.86C174.832 185.953 174.795 186 174.72 186H171.556ZM174.86 174.268H177.268C177.847 174.268 178.36 174.053 178.808 173.624C179.256 173.195 179.48 172.672 179.48 172.056C179.48 171.459 179.256 170.945 178.808 170.516C178.379 170.087 177.866 169.872 177.268 169.872H174.86V174.268ZM185.064 186C184.989 186 184.952 185.953 184.952 185.86L185.008 166.652C185.008 166.559 185.045 166.512 185.12 166.512H188.256C188.331 166.512 188.368 166.559 188.368 166.652V173.288L192.764 166.624C192.82 166.549 192.885 166.512 192.96 166.512H196.18C196.255 166.512 196.273 166.549 196.236 166.624L191.392 174.352L196.824 185.888C196.861 185.963 196.815 186 196.684 186H193.268C193.175 186 193.119 185.963 193.1 185.888L189.32 177.656L188.34 179.196V185.86C188.34 185.953 188.303 186 188.228 186H185.064Z" fill="#554A4A"/>
<defs>
<linearGradient id="paint0_linear" x1="322.636" y1="64.8382" x2="393.883" y2="120.432" gradientUnits="userSpaceOnUse">
<stop stop-color="#1186A6"/>
<stop offset="1" stop-color="#830E3D"/>
</linearGradient>
<linearGradient id="paint1_linear" x1="293.563" y1="187.728" x2="396.704" y2="136.415" gradientUnits="userSpaceOnUse">
<stop offset="0.00418635" stop-color="#498333"/>
<stop offset="1" stop-color="#830E3D"/>
</linearGradient>
</defs>
</svg>
