<svg width="250" height="250" viewBox="0 0 250 250" fill="none" xmlns="http://www.w3.org/2000/svg">
<mask id="mask0" mask-type="alpha" maskUnits="userSpaceOnUse" x="0" y="0" width="250" height="250">
<rect width="250" height="250" rx="125" fill="#C4C4C4"/>
</mask>
<g mask="url(#mask0)">
<path d="M183.588 11.4807C166.752 3.47812 147.916 -1 128.034 -1C93.3501 -1 61.8492 12.628 38.594 34.8214C13.8698 58.4166 227.349 32.2809 183.588 11.4807Z" fill="#7CCDE3"/>
<path d="M229.402 47.7267C229.55 47.9117 218.834 62.2337 186.628 66.2997C121.623 74.5065 10.0195 75.3742 10.1877 75.0046C17.0916 59.8343 26.8352 46.2294 38.7393 34.8689C52.7653 39.2481 68.032 40.3394 82.4725 37.6782C106.317 33.3161 127.53 19.5387 151.116 13.9241C161.584 11.4091 172.99 10.6745 183.732 11.5278C201.581 20.0115 217.183 32.4566 229.402 47.7267Z" fill="#98D5E6"/>
<path d="M255.962 108.343C256.044 108.865 109.375 122.652 37.9138 118.633C14.6311 117.324 0.890634 103.247 1.04822 102.479C3.01197 92.9007 6.03261 83.7081 9.98293 75.0279C30.6283 63.7276 54.9174 57.2061 78.4698 57.4635C108.005 57.7658 136.98 67.613 166.516 66.8787C188.45 66.3209 210.559 59.3201 229.197 47.75C242.932 64.9157 252.392 85.6515 255.962 108.343Z" fill="#B4DDE8"/>
<path d="M257.132 127.91C257.132 128.628 257.114 130.06 257.114 130.06C257.114 130.06 216.377 140.335 163.912 139.722C90.4272 138.863 -2.00183 127.01 -2 126.793C-1.92739 118.196 -1.01754 109.799 0.652011 101.679C18.2578 112.542 39.6093 117.862 60.1598 115.623C76.5014 113.852 92.0237 107.806 107.158 101.371C122.292 94.9353 137.34 88.025 153.337 84.3107C176.836 78.8689 201.973 80.7692 224.438 89.623C235.366 93.9327 246.209 100.129 255.549 107.6C256.591 114.217 257.132 121 257.132 127.91Z" fill="#F25192"/>
<path d="M110.194 170.017C71.3208 177.196 4.60924 168.916 4.44112 168.404C0.261087 155.674 -2 142.075 -2 127.947C-2 127.574 -1.99842 127.201 -1.99528 126.829C3.90602 122.15 10.7991 117.977 17.5283 114.735C34.1716 106.659 53.0571 103.29 71.4683 105.104C89.6638 106.918 107.04 113.655 123.856 120.911C138.023 127.024 152.099 133.628 166.804 138.19C168.245 138.637 152.985 162.115 110.194 170.017Z" fill="#D34CA3"/>
<path d="M252.618 162.852C249.904 167.436 224.088 182.879 189.093 185.524C142.758 189.026 88.0202 175.02 106.178 167.892C134.765 156.663 159.557 136.494 189.093 128.072C211.157 121.751 235.615 122.75 257.275 130.388C257.092 141.614 255.482 152.494 252.618 162.852Z" fill="#9A50A5"/>
<path d="M240.591 192.573C218.218 231.416 55.9527 241.157 32.248 215.028C20.1815 201.728 10.8413 185.908 5.10938 168.453C25.0363 157.064 48.3629 152.227 70.784 155.293C99.8021 159.266 125.802 175.462 154.432 181.768C177.543 186.864 202.034 185.266 224.282 177.233C234.34 173.574 244.312 168.67 253.131 162.607C250.201 173.202 245.959 183.253 240.591 192.573Z" fill="#96D180"/>
<path d="M240.058 192.029C217.732 231.051 175.695 257.346 127.517 257.346C89.4518 257.346 55.2207 240.932 31.5156 214.795C35.4494 216.299 39.8491 217.599 43.8817 218.735C66.4322 224.954 90.7073 224.782 113.128 218.174C127.487 213.941 140.982 207.203 155.082 202.107C181.986 192.405 211.599 188.989 240.058 192.029Z" fill="#86AB79"/>
<circle cx="107.5" cy="52.5" r="12.5" fill="#1186A6"/>
<circle cx="199.5" cy="125.5" r="12.5" fill="#AF3868"/>
<circle cx="71.5" cy="189.5" r="12.5" fill="#498333"/>
<path d="M117 61L189 117" stroke="url(#paint0_linear)" stroke-dasharray="5 5"/>
<path d="M83 184L187 132" stroke="url(#paint1_linear)" stroke-dasharray="5 5"/>
</g>
<defs>
<linearGradient id="paint0_linear" x1="114.636" y1="64.8382" x2="185.883" y2="120.432" gradientUnits="userSpaceOnUse">
<stop stop-color="#1186A6"/>
<stop offset="1" stop-color="#830E3D"/>
</linearGradient>
<linearGradient id="paint1_linear" x1="85.5634" y1="187.728" x2="188.704" y2="136.415" gradientUnits="userSpaceOnUse">
<stop offset="0.00418635" stop-color="#498333"/>
<stop offset="1" stop-color="#830E3D"/>
</linearGradient>
</defs>
</svg>
